# xmcd
#
# Track frame offsets:
#	150
#	15212
#	24968
#	37305
#	51507
#	66211
#	78154
#	91243
#	108098
#	123873
#	155524
#	170042
#	186369
#	204507
#	215868
#	229924
# Disc length: 3251 seconds
# Revision: 1
# Processed by: cddbd v1.5.1PL0 Copyright (c) Steve Scherf et al.
#
# Submitted via: libkcddb 0.10
#
DISCID=d70cb110
DTITLE=Alexandru Andries - Alb-negru
DYEAR=1900
DGENRE=Unknown
TTITLE0=Tot ce vreau de fapt
TTITLE1=Corina, Corina
TTITLE2=La noi
TTITLE3=Femei pentru zile ploioase
TTITLE4=Clipa mea
TTITLE5=E-atât de greu să râzi, e-aşa uşor să plângi
TTITLE6=Cunosc o fată
TTITLE7=Poate mâine
TTITLE8=Te vreau
TTITLE9=E bine, mamă, doar că pierd sânge
TTITLE10=Vorbesc de cel orbit de zi
TTITLE11=E bine, nu te răzgândi
TTITLE12=Stăpânii războiului
TTITLE13=Mă laşi prea singur dacă vei pleca
TTITLE14=Jos, în vâltoare
TTITLE15=Nu te cred
EXTD=
EXTT0=
EXTT1=
EXTT2=
EXTT3=
EXTT4=
EXTT5=
EXTT6=
EXTT7=
EXTT8=
EXTT9=
EXTT10=
EXTT11=
EXTT12=
EXTT13=
EXTT14=
EXTT15=
PLAYORDER=
